<svg width="43" height="43" viewBox="0 0 43 43" fill="none" xmlns="http://www.w3.org/2000/svg">
<rect x="0.75" y="0.75" width="41.5" height="41.5" rx="20.75" fill="white"/>
<rect x="0.75" y="0.75" width="41.5" height="41.5" rx="20.75" fill="#FFF2EB" fill-opacity="0.4"/>
<rect x="0.75" y="0.75" width="41.5" height="41.5" rx="20.75" stroke="#FF6000" stroke-width="1.5"/>
<path d="M30.5 21.5C30.5 21.6989 30.421 21.8897 30.2803 22.0303C30.1397 22.171 29.9489 22.25 29.75 22.25H13.25C13.0511 22.25 12.8603 22.171 12.7197 22.0303C12.579 21.8897 12.5 21.6989 12.5 21.5C12.5 21.3011 12.579 21.1103 12.7197 20.9697C12.8603 20.829 13.0511 20.75 13.25 20.75H29.75C29.9489 20.75 30.1397 20.829 30.2803 20.9697C30.421 21.1103 30.5 21.3011 30.5 21.5ZM13.25 16.25H29.75C29.9489 16.25 30.1397 16.171 30.2803 16.0303C30.421 15.8897 30.5 15.6989 30.5 15.5C30.5 15.3011 30.421 15.1103 30.2803 14.9697C30.1397 14.829 29.9489 14.75 29.75 14.75H13.25C13.0511 14.75 12.8603 14.829 12.7197 14.9697C12.579 15.1103 12.5 15.3011 12.5 15.5C12.5 15.6989 12.579 15.8897 12.7197 16.0303C12.8603 16.171 13.0511 16.25 13.25 16.25ZM29.75 26.75H13.25C13.0511 26.75 12.8603 26.829 12.7197 26.9697C12.579 27.1103 12.5 27.3011 12.5 27.5C12.5 27.6989 12.579 27.8897 12.7197 28.0303C12.8603 28.171 13.0511 28.25 13.25 28.25H29.75C29.9489 28.25 30.1397 28.171 30.2803 28.0303C30.421 27.8897 30.5 27.6989 30.5 27.5C30.5 27.3011 30.421 27.1103 30.2803 26.9697C30.1397 26.829 29.9489 26.75 29.75 26.75Z" fill="black"/>
</svg>
