<svg width="43" height="43" viewBox="0 0 43 43" fill="none" xmlns="http://www.w3.org/2000/svg">
<rect x="0.75" y="0.75" width="41.5" height="41.5" rx="20.75" fill="white"/>
<rect x="0.75" y="0.75" width="41.5" height="41.5" rx="20.75" fill="#FFF2EB" fill-opacity="0.4"/>
<rect x="0.75" y="0.75" width="41.5" height="41.5" rx="20.75" stroke="#FF6000" stroke-width="1.5"/>
<path d="M28.7806 27.7193C28.8503 27.789 28.9056 27.8717 28.9433 27.9628C28.981 28.0538 29.0004 28.1514 29.0004 28.2499C29.0004 28.3485 28.981 28.4461 28.9433 28.5371C28.9056 28.6281 28.8503 28.7109 28.7806 28.7806C28.7109 28.8502 28.6282 28.9055 28.5372 28.9432C28.4461 28.9809 28.3485 29.0003 28.25 29.0003C28.1514 29.0003 28.0539 28.9809 27.9628 28.9432C27.8718 28.9055 27.789 28.8502 27.7194 28.7806L21.5 22.5602L15.2806 28.7806C15.1399 28.9213 14.949 29.0003 14.75 29.0003C14.551 29.0003 14.3601 28.9213 14.2194 28.7806C14.0786 28.6398 13.9996 28.449 13.9996 28.2499C13.9996 28.0509 14.0786 27.86 14.2194 27.7193L20.4397 21.4999L14.2194 15.2806C14.0786 15.1398 13.9996 14.949 13.9996 14.7499C13.9996 14.5509 14.0786 14.36 14.2194 14.2193C14.3601 14.0786 14.551 13.9995 14.75 13.9995C14.949 13.9995 15.1399 14.0786 15.2806 14.2193L21.5 20.4396L27.7194 14.2193C27.8601 14.0786 28.051 13.9995 28.25 13.9995C28.449 13.9995 28.6399 14.0786 28.7806 14.2193C28.9213 14.36 29.0004 14.5509 29.0004 14.7499C29.0004 14.949 28.9213 15.1398 28.7806 15.2806L22.5603 21.4999L28.7806 27.7193Z" fill="black"/>
</svg>
