<svg width="296" height="180" viewBox="0 0 296 180" fill="none" xmlns="http://www.w3.org/2000/svg">
<g clip-path="url(#clip0_116_298)">
<path d="M237.995 121.816C237.995 100.59 226.425 81.5341 208.806 71.3701C207.525 70.6314 205.961 71.5743 205.881 73.0504C203.706 113.331 171.327 145.71 131.047 147.885C129.57 147.964 128.627 149.529 129.366 150.81C139.53 168.429 158.587 179.999 179.812 179.999C189.999 179.999 199.913 177.36 208.682 172.339C209.154 172.069 209.713 171.993 210.237 172.138L234.34 178.804C235.837 179.219 237.215 177.841 236.8 176.344L230.134 152.241C229.989 151.717 230.065 151.158 230.335 150.686C235.356 141.917 237.995 132.003 237.995 121.816Z" fill="#FF6000"/>
<path d="M195.461 68.7305C195.461 30.8318 164.629 0 126.73 0C88.8318 0 58 30.8318 58 68.7305C58 80.9391 61.2121 92.8297 67.3153 103.299C67.4521 103.534 67.4897 103.814 67.4173 104.075L58.7232 135.506C58.516 136.255 59.2047 136.944 59.9535 136.737L91.3857 128.044C91.6474 127.971 91.9274 128.009 92.162 128.146C102.631 134.249 114.522 137.461 126.73 137.461C164.629 137.461 195.461 106.629 195.461 68.7305ZM116.231 51.7354C116.179 52.2853 115.736 52.7344 115.184 52.7344H106.637C106.084 52.7344 105.634 52.2859 105.66 51.7342C106.184 40.565 115.434 31.6406 126.73 31.6406C138.362 31.6406 147.824 41.1026 147.824 52.7344C147.824 58.6382 145.325 64.3126 140.965 68.3006L132.329 76.2046C132.122 76.3941 132.004 76.6617 132.004 76.9423V83.7266C132.004 84.2789 131.556 84.7266 131.004 84.7266H122.457C121.905 84.7266 121.457 84.2789 121.457 83.7266V72.2978C121.457 72.0172 121.575 71.7496 121.782 71.5602L133.844 60.5196C136.058 58.494 137.277 55.7295 137.277 52.7344C137.277 46.9185 132.546 42.1875 126.73 42.1875C121.251 42.1875 116.735 46.3863 116.231 51.7354ZM121.457 96.2734C121.457 95.7212 121.905 95.2734 122.457 95.2734H131.004C131.556 95.2734 132.004 95.7212 132.004 96.2734V104.82C132.004 105.373 131.556 105.82 131.004 105.82H122.457C121.905 105.82 121.457 105.373 121.457 104.82V96.2734Z" fill="#FF6000"/>
</g>
<defs>
<clipPath id="clip0_116_298">
<rect width="180" height="180" fill="white" transform="translate(58)"/>
</clipPath>
</defs>
</svg>
