<svg width="49" height="56" viewBox="0 0 49 56" fill="none" xmlns="http://www.w3.org/2000/svg">
<g clip-path="url(#clip0_116_163)">
<path d="M6.4717 0C4.7553 0 3.10919 0.688331 1.89552 1.91357C0.681837 3.13881 0 4.80059 0 6.53333V45.7333C0 47.4661 0.681837 49.1279 1.89552 50.3531C3.10919 51.5783 4.7553 52.2667 6.4717 52.2667H20.2467C19.4225 51.2591 18.7096 50.1637 18.1208 49H6.4717C5.6135 49 4.79045 48.6558 4.18361 48.0432C3.57677 47.4306 3.23585 46.5997 3.23585 45.7333H16.8491C15.9836 42.656 15.9478 39.4012 16.7452 36.3051C17.5427 33.2091 19.1445 30.3842 21.3851 28.1222C23.6258 25.8601 26.4241 24.2431 29.4909 23.4381C32.5577 22.633 35.7819 22.6692 38.8302 23.5429V6.53333C38.8302 4.80059 38.1483 3.13881 36.9347 1.91357C35.721 0.688331 34.0749 0 32.3585 0H6.4717ZM8.89858 8.16667H29.9316C30.5753 8.16667 31.1925 8.42479 31.6477 8.88425C32.1028 9.34372 32.3585 9.96689 32.3585 10.6167C32.3585 11.2664 32.1028 11.8896 31.6477 12.3491C31.1925 12.8085 30.5753 13.0667 29.9316 13.0667H8.89858C8.25493 13.0667 7.63765 12.8085 7.18252 12.3491C6.72739 11.8896 6.4717 11.2664 6.4717 10.6167C6.4717 9.96689 6.72739 9.34372 7.18252 8.88425C7.63765 8.42479 8.25493 8.16667 8.89858 8.16667ZM48.5377 40.8333C48.5377 44.732 47.0036 48.471 44.2728 51.2278C41.542 53.9846 37.8383 55.5333 33.9764 55.5333C30.1145 55.5333 26.4108 53.9846 23.68 51.2278C20.9492 48.471 19.4151 44.732 19.4151 40.8333C19.4151 36.9347 20.9492 33.1956 23.68 30.4389C26.4108 27.6821 30.1145 26.1333 33.9764 26.1333C37.8383 26.1333 41.542 27.6821 44.2728 30.4389C47.0036 33.1956 48.5377 36.9347 48.5377 40.8333ZM32.4232 34.4111C32.2136 34.265 31.9698 34.1769 31.716 34.1557C31.4622 34.1345 31.2073 34.1809 30.9768 34.2902C30.7889 34.3746 30.6187 34.4943 30.4752 34.643C30.3245 34.7964 30.2054 34.9785 30.1249 35.1786C30.0443 35.3788 30.0039 35.5931 30.006 35.8092V45.8542C30.0035 46.0708 30.0437 46.2857 30.1242 46.4865C30.2048 46.6873 30.3241 46.8699 30.4752 47.0237C30.6244 47.1702 30.7959 47.2915 30.9833 47.383C31.3116 47.5349 31.6841 47.5582 32.0284 47.4483C32.178 47.3996 32.3197 47.3292 32.4491 47.2393L39.8786 42.1204C40.1046 41.9699 40.2866 41.7613 40.406 41.5161C40.528 41.2687 40.5906 40.9958 40.5889 40.7195C40.5872 40.4431 40.5213 40.1711 40.3963 39.9252C40.2683 39.6845 40.0825 39.4801 39.8559 39.3307L32.4232 34.4111Z" fill="#FF6000"/>
</g>
<defs>
<clipPath id="clip0_116_163">
<rect width="49" height="56" fill="white"/>
</clipPath>
</defs>
</svg>
