<svg width="70" height="56" viewBox="0 0 70 56" fill="none" xmlns="http://www.w3.org/2000/svg">
<g clip-path="url(#clip0_116_179)">
<path d="M42 18.6667C42 21.142 41.0167 23.516 39.2663 25.2663C37.516 27.0167 35.142 28 32.6667 28C30.1913 28 27.8173 27.0167 26.067 25.2663C24.3167 23.516 23.3333 21.142 23.3333 18.6667C23.3333 16.1913 24.3167 13.8173 26.067 12.067C27.8173 10.3167 30.1913 9.33333 32.6667 9.33333C35.142 9.33333 37.516 10.3167 39.2663 12.067C41.0167 13.8173 42 16.1913 42 18.6667ZM0 8.16667C0 3.65867 3.65867 0 8.16667 0H57.1667C61.6747 0 65.3333 3.65867 65.3333 8.16667V10.1967C63.8609 9.56748 62.2664 9.27569 60.6667 9.34267V8.16667C60.6667 7.23841 60.2979 6.34817 59.6415 5.69179C58.9852 5.03541 58.0949 4.66667 57.1667 4.66667H8.16667C7.23841 4.66667 6.34817 5.03541 5.69179 5.69179C5.03541 6.34817 4.66667 7.23841 4.66667 8.16667V38.5C4.66667 40.432 6.23467 42 8.16667 42H18.6667V37.3333C18.6667 36.0957 19.1583 34.9087 20.0335 34.0335C20.9087 33.1583 22.0957 32.6667 23.3333 32.6667H42C43.0045 32.6669 43.9822 32.9913 44.7877 33.5916C45.5931 34.1919 46.1834 35.0361 46.4707 35.9987C44.8957 35.7642 43.2872 35.9227 41.7883 36.4601C40.2894 36.9974 38.9466 37.897 37.8793 39.0787L35.336 41.916C34.076 43.3207 33.2687 44.9633 32.9 46.6667H8.16667C7.0942 46.6667 6.03224 46.4554 5.04142 46.045C4.05059 45.6346 3.15031 45.0331 2.39196 44.2747C1.63362 43.5164 1.03206 42.6161 0.62165 41.6252C0.211237 40.6344 0 39.5725 0 38.5V8.16667ZM54.0587 21.378L55.3793 17.878C56.5833 14.7047 60.3353 13.1367 63.4993 14.4853L65.31 15.26C67.5173 16.2027 69.3467 17.9107 69.7293 20.2067C71.862 32.9233 60.8253 51.0113 48.1227 55.6267C45.8267 56.4573 43.3487 55.8133 41.3793 54.4787L39.7647 53.382C39.1018 52.9355 38.5436 52.3505 38.1287 51.6673C37.7139 50.9841 37.4521 50.2191 37.3616 49.4249C37.2711 48.6308 37.354 47.8265 37.6045 47.0675C37.855 46.3085 38.2672 45.6129 38.8127 45.0287L41.356 42.196C41.9534 41.5381 42.7156 41.0515 43.5638 40.7866C44.4121 40.5216 45.3157 40.4878 46.1813 40.6887L51.898 42.042C56.4309 39.2109 58.8607 35.2287 59.1873 30.0953L55.09 26.082C54.478 25.4839 54.0544 24.72 53.8711 23.8842C53.6879 23.0484 53.7531 22.1772 54.0587 21.378Z" fill="#FF6000"/>
</g>
<defs>
<clipPath id="clip0_116_179">
<rect width="70" height="56" fill="white"/>
</clipPath>
</defs>
</svg>
