<svg width="97" height="121" viewBox="0 0 97 121" fill="none" xmlns="http://www.w3.org/2000/svg">
<g clip-path="url(#clip0_116_997)">
<path d="M57.5618 19.7914C58.1625 19.1917 58.5 18.3785 58.5 17.5305C58.5 16.6826 58.1625 15.8693 57.5618 15.2696L43.9685 1.70432C43.3641 1.1218 42.5546 0.799475 41.7144 0.806762C40.8742 0.814048 40.0705 1.15036 39.4764 1.74327C38.8822 2.33618 38.5452 3.13824 38.5379 3.97671C38.5306 4.81518 38.8536 5.62296 39.4373 6.22609L45.827 12.6026C35.9757 13.1491 26.5314 16.7077 18.7766 22.7953C11.0217 28.8828 5.332 37.2045 2.47984 46.6304C-0.372314 56.0563 -0.248699 66.1297 2.83391 75.4831C5.91651 84.8364 11.8088 93.0165 19.7107 98.9128C20.3906 99.4216 21.2452 99.6401 22.0865 99.5202C22.9279 99.4003 23.687 98.9517 24.1969 98.2732C24.7068 97.5947 24.9258 96.7418 24.8056 95.9022C24.6854 95.0626 24.2359 94.3051 23.556 93.7962C15.9294 88.1069 10.4861 79.9819 8.13253 70.7744C5.77899 61.5669 6.65731 51.8327 10.6212 43.1929C14.5851 34.5531 21.3954 27.5292 29.9177 23.291C38.4401 19.0528 48.1602 17.856 57.4592 19.9001L57.5618 19.7914ZM39.4373 101.196L39.5399 101.094C42.159 101.669 44.8593 101.989 47.6408 102.053L47.6023 102.091L48.0766 102.066C56.8621 102.157 65.4516 99.4735 72.6169 94.3995C79.7822 89.3254 85.1565 82.1204 87.9713 73.8147C90.7861 65.5089 90.8974 56.5277 88.2892 48.155C85.681 39.7823 80.4869 32.4469 73.4495 27.1976C73.1129 26.9457 72.8292 26.63 72.6148 26.2686C72.4004 25.9073 72.2595 25.5073 72.1999 25.0916C72.1404 24.6759 72.1636 24.2525 72.268 23.8457C72.3724 23.4389 72.5561 23.0566 72.8086 22.7206C73.0611 22.3847 73.3774 22.1016 73.7395 21.8877C74.1016 21.6737 74.5024 21.533 74.919 21.4736C75.3356 21.4142 75.7598 21.4373 76.1675 21.5415C76.5751 21.6458 76.9582 21.8291 77.2949 22.0811C79.1065 23.4327 80.8369 24.9314 82.4861 26.5772C89.0459 33.1251 93.5666 41.4277 95.5025 50.4829C97.4384 59.5381 96.7068 68.9589 93.396 77.6083C90.0852 86.2578 84.3367 93.7661 76.8443 99.2273C69.3519 104.688 60.4358 107.869 51.1721 108.385L57.5618 114.761C57.8678 115.056 58.112 115.409 58.2799 115.799C58.4479 116.19 58.5363 116.609 58.54 117.034C58.5437 117.458 58.4626 117.879 58.3014 118.272C58.1403 118.665 57.9024 119.023 57.6015 119.323C57.3006 119.623 56.9428 119.86 56.549 120.021C56.1552 120.182 55.7333 120.263 55.3078 120.259C54.8823 120.256 54.4618 120.167 54.0708 120C53.6799 119.832 53.3263 119.589 53.0307 119.283L39.4373 105.724C39.1389 105.427 38.9022 105.074 38.7406 104.686C38.5791 104.297 38.4959 103.881 38.4959 103.46C38.4959 103.039 38.5791 102.623 38.7406 102.234C38.9022 101.846 39.1389 101.493 39.4373 101.196ZM80.5442 60.4937C80.5442 68.975 77.1681 77.1088 71.1585 83.106C65.149 89.1031 56.9983 92.4723 48.4996 92.4723C40.0008 92.4723 31.8501 89.1031 25.8406 83.106C19.831 77.1088 16.4549 68.975 16.4549 60.4937C16.4549 52.0125 19.831 43.8786 25.8406 37.8815C31.8501 31.8843 40.0008 28.5152 48.4996 28.5152C56.9983 28.5152 65.149 31.8843 71.1585 37.8815C77.1681 43.8786 80.5442 52.0125 80.5442 60.4937ZM63.5862 48.6361C63.2885 48.3383 62.9349 48.102 62.5456 47.9408C62.1563 47.7796 61.7389 47.6966 61.3174 47.6966C60.8959 47.6966 60.4786 47.7796 60.0893 47.9408C59.6999 48.102 59.3463 48.3383 59.0487 48.6361L42.0906 65.5655L34.746 58.2296C34.1443 57.6292 33.3282 57.2918 32.4772 57.2918C31.6263 57.2918 30.8102 57.6292 30.2085 58.2296C29.6068 58.8301 29.2687 59.6445 29.2687 60.4937C29.2687 61.3429 29.6068 62.1573 30.2085 62.7578L39.8219 72.3514C40.1195 72.6492 40.4732 72.8855 40.8625 73.0467C41.2518 73.2079 41.6691 73.2909 42.0906 73.2909C42.5121 73.2909 42.9295 73.2079 43.3188 73.0467C43.7081 72.8855 44.0617 72.6492 44.3594 72.3514L63.5862 53.1642C63.8846 52.8672 64.1214 52.5143 64.2829 52.1258C64.4445 51.7373 64.5276 51.3208 64.5276 50.9001C64.5276 50.4795 64.4445 50.063 64.2829 49.6745C64.1214 49.286 63.8846 48.9331 63.5862 48.6361Z" fill="#FF6000"/>
</g>
<defs>
<clipPath id="clip0_116_997">
<rect width="97" height="121" fill="white"/>
</clipPath>
</defs>
</svg>
