<svg width="180" height="180" viewBox="0 0 180 180" fill="none" xmlns="http://www.w3.org/2000/svg">
<g clip-path="url(#clip0_116_299)">
<path d="M179.995 121.816C179.995 100.59 168.425 81.5341 150.806 71.3701C149.525 70.6314 147.961 71.5743 147.881 73.0504C145.706 113.331 113.327 145.71 73.0465 147.885C71.5704 147.964 70.6275 149.529 71.3662 150.81C81.5302 168.429 100.587 179.999 121.812 179.999C131.999 179.999 141.913 177.36 150.682 172.339C151.154 172.069 151.713 171.993 152.237 172.138L176.34 178.804C177.837 179.219 179.215 177.841 178.8 176.344L172.134 152.241C171.989 151.717 172.065 151.158 172.335 150.686C177.356 141.917 179.995 132.003 179.995 121.816Z" fill="#FF6000"/>
<path d="M137.461 68.7305C137.461 30.8318 106.629 0 68.7305 0C30.8318 0 0 30.8318 0 68.7305C0 80.9391 3.21209 92.8297 9.31534 103.299C9.45214 103.534 9.48973 103.814 9.41731 104.075L0.72315 135.506C0.51601 136.255 1.20466 136.944 1.95351 136.737L33.3857 128.044C33.6474 127.971 33.9274 128.009 34.162 128.146C44.6312 134.249 56.5219 137.461 68.7305 137.461C106.629 137.461 137.461 106.629 137.461 68.7305ZM58.2305 51.7354C58.1786 52.2853 57.7359 52.7344 57.1836 52.7344H48.6367C48.0844 52.7344 47.6343 52.2859 47.6601 51.7342C48.1839 40.565 57.4339 31.6406 68.7305 31.6406C80.3623 31.6406 89.8242 41.1026 89.8242 52.7344C89.8242 58.6382 87.3248 64.3126 82.9646 68.3006L74.3288 76.2046C74.1218 76.3941 74.0039 76.6617 74.0039 76.9423V83.7266C74.0039 84.2789 73.5562 84.7266 73.0039 84.7266H64.457C63.9048 84.7266 63.457 84.2789 63.457 83.7266V72.2978C63.457 72.0172 63.5749 71.7496 63.7819 71.5602L75.8441 60.5196C78.0579 58.494 79.2774 55.7295 79.2774 52.7344C79.2774 46.9185 74.5464 42.1875 68.7305 42.1875C63.2514 42.1875 58.7353 46.3863 58.2305 51.7354ZM63.457 96.2734C63.457 95.7212 63.9048 95.2734 64.457 95.2734H73.0039C73.5562 95.2734 74.0039 95.7212 74.0039 96.2734V104.82C74.0039 105.373 73.5562 105.82 73.0039 105.82H64.457C63.9048 105.82 63.457 105.373 63.457 104.82V96.2734Z" fill="#FF6000"/>
</g>
<defs>
<clipPath id="clip0_116_299">
<rect width="180" height="180" fill="white"/>
</clipPath>
</defs>
</svg>
