<svg width="40" height="40" viewBox="0 0 40 40" fill="none" xmlns="http://www.w3.org/2000/svg">
<g clip-path="url(#clip0_116_504)">
<path d="M20 4C15.7575 4 11.685 5.68675 8.6875 8.68625C5.68693 11.687 4.00086 15.7565 4 20C4 24.2417 5.6875 28.3142 8.6875 31.3137C11.685 34.3132 15.7575 36 20 36C24.2425 36 28.315 34.3132 31.3125 31.3137C34.3125 28.3142 36 24.2417 36 20C36 15.7583 34.3125 11.6858 31.3125 8.68625C28.315 5.68675 24.2425 4 20 4Z" fill="url(#paint0_linear_116_504)"/>
<path d="M11.2421 19.831C15.9071 17.799 19.0171 16.4593 20.5721 15.812C25.0171 13.9637 25.9396 13.6427 26.5421 13.6319C26.6746 13.6297 26.9696 13.6625 27.1621 13.8181C27.3221 13.9494 27.3671 14.1269 27.3896 14.2515C27.4096 14.376 27.4371 14.6597 27.4146 14.8812C27.1746 17.4112 26.1321 23.5507 25.6021 26.3845C25.3796 27.5835 24.9371 27.9855 24.5096 28.0247C23.5796 28.1102 22.8746 27.4107 21.9746 26.821C20.5671 25.8977 19.7721 25.3232 18.4046 24.4225C16.8246 23.3815 17.8496 22.8092 18.7496 21.8742C18.9846 21.6295 23.0796 17.9057 23.1571 17.568C23.1671 17.5257 23.1771 17.3682 23.0821 17.2852C22.9896 17.202 22.8521 17.2305 22.7521 17.253C22.6096 17.285 20.3621 18.772 16.0021 21.7137C15.3646 22.1522 14.7871 22.366 14.2671 22.3547C13.6971 22.3425 12.5971 22.0317 11.7796 21.7662C10.7796 21.4405 9.98213 21.2682 10.0521 20.715C10.0871 20.427 10.4846 20.1322 11.2421 19.831Z" fill="white"/>
</g>
<defs>
<linearGradient id="paint0_linear_116_504" x1="1604" y1="4" x2="1604" y2="3204" gradientUnits="userSpaceOnUse">
<stop stop-color="#2AABEE"/>
<stop offset="1" stop-color="#229ED9"/>
</linearGradient>
<clipPath id="clip0_116_504">
<rect width="32" height="32" fill="white" transform="translate(4 4)"/>
</clipPath>
</defs>
</svg>
