<svg width="40" height="41" viewBox="0 0 40 41" fill="none" xmlns="http://www.w3.org/2000/svg">
<rect width="40" height="41" rx="20" fill="#0A66C2"/>
<path d="M14.9404 13.5C14.9402 14.0305 14.7292 14.5391 14.3539 14.9139C13.9787 15.2888 13.4699 15.4993 12.9394 15.499C12.409 15.4988 11.9004 15.2878 11.5255 14.9125C11.1506 14.5373 10.9402 14.0285 10.9404 13.498C10.9407 12.9676 11.1517 12.459 11.5269 12.0841C11.9022 11.7092 12.411 11.4988 12.9414 11.499C13.4719 11.4993 13.9805 11.7103 14.3554 12.0855C14.7302 12.4608 14.9407 12.9696 14.9404 13.5ZM15.0004 16.98H11.0004V29.5H15.0004V16.98ZM21.3204 16.98H17.3404V29.5H21.2804V22.93C21.2804 19.27 26.0504 18.93 26.0504 22.93V29.5H30.0004V21.57C30.0004 15.4 22.9404 15.63 21.2804 18.66L21.3204 16.98Z" fill="white"/>
</svg>
