<svg width="368" height="84" viewBox="0 0 368 84" fill="none" xmlns="http://www.w3.org/2000/svg">
<g clip-path="url(#clip0_116_125)">
<path d="M44.9302 56.7697H15.7302C15.7702 60.1597 16.4502 63.1497 17.7802 65.7397C19.1102 68.3297 20.8802 70.2796 23.0802 71.5896C25.2902 72.8996 27.7202 73.5596 30.3802 73.5596C32.1702 73.5596 33.8002 73.3496 35.2702 72.9296C36.7402 72.5096 38.1802 71.8497 39.5602 70.9597C40.9502 70.0697 42.2202 69.1096 43.3902 68.0896C44.5602 67.0696 46.0702 65.6796 47.9302 63.9296C48.7002 63.2696 49.7902 62.9496 51.2102 62.9496C52.7402 62.9496 53.9802 63.3697 54.9302 64.2097C55.8802 65.0497 56.3502 66.2296 56.3502 67.7596C56.3502 69.1096 55.8202 70.6897 54.7602 72.4897C53.7002 74.2897 52.1102 76.0297 49.9702 77.6897C47.8302 79.3497 45.1602 80.7297 41.9302 81.8197C38.7002 82.9097 34.9902 83.4597 30.8002 83.4597C21.2102 83.4597 13.7602 80.7296 8.4302 75.2596C3.1102 69.7896 0.450195 62.3696 0.450195 52.9996C0.450195 48.5896 1.1102 44.4997 2.4202 40.7197C3.7302 36.9397 5.6502 33.7097 8.1602 31.0097C10.6802 28.3097 13.7702 26.2397 17.4602 24.7997C21.1402 23.3597 25.2302 22.6396 29.7102 22.6396C35.5402 22.6396 40.5502 23.8697 44.7202 26.3297C48.8902 28.7897 52.0202 31.9697 54.1002 35.8697C56.1802 39.7697 57.2202 43.7497 57.2202 47.7896C57.2202 51.5496 56.1402 53.9796 53.9902 55.0896C51.8602 56.2096 48.8302 56.7697 44.9302 56.7697ZM15.7302 48.2896H42.8002C42.4402 43.1897 41.0602 39.3697 38.6702 36.8297C36.2802 34.2997 33.1402 33.0296 29.2402 33.0296C25.5202 33.0296 22.4702 34.3196 20.0802 36.8896C17.6902 39.4596 16.2402 43.2596 15.7302 48.2896Z" fill="#FF6000"/>
<path d="M110.72 74.92V73.44C108.71 75.74 106.74 77.61 104.79 79.05C102.84 80.49 100.73 81.58 98.4499 82.33C96.1699 83.08 93.6799 83.45 90.9899 83.45C87.4199 83.45 84.1099 82.69 81.0599 81.18C78.0199 79.67 75.3799 77.51 73.1599 74.7C70.9399 71.89 69.2499 68.59 68.0999 64.8C66.9499 61.01 66.3799 56.91 66.3799 52.5C66.3799 43.17 68.6599 35.89 73.2199 30.68C77.7799 25.47 83.7699 22.86 91.2099 22.86C95.5099 22.86 99.1399 23.6 102.09 25.07C105.04 26.54 107.92 28.82 110.73 31.88V9.84003C110.73 6.78003 111.34 4.46004 112.56 2.89004C113.78 1.32004 115.52 0.540039 117.78 0.540039C120.04 0.540039 121.78 1.26004 123 2.70004C124.22 4.14004 124.83 6.26004 124.83 9.07004V74.91C124.83 77.75 124.17 79.89 122.86 81.31C121.55 82.73 119.85 83.44 117.77 83.44C115.73 83.44 114.04 82.7 112.71 81.23C111.38 79.76 110.72 77.66 110.72 74.92ZM81.3499 52.99C81.3499 57.04 81.9799 60.48 83.2399 63.33C84.4999 66.18 86.2199 68.32 88.4099 69.76C90.5999 71.2 92.9899 71.92 95.5699 71.92C98.1899 71.92 100.59 71.24 102.76 69.87C104.93 68.5 106.66 66.41 107.96 63.58C109.26 60.75 109.9 57.23 109.9 53C109.9 49.03 109.25 45.61 107.96 42.75C106.67 39.89 104.92 37.7 102.71 36.19C100.5 34.68 98.0899 33.92 95.4599 33.92C92.7299 33.92 90.2799 34.69 88.1299 36.24C85.9799 37.79 84.3099 40.01 83.1299 42.91C81.9399 45.8 81.3499 49.16 81.3499 52.99Z" fill="#FF6000"/>
<path d="M140.63 24.0602H142.27V15.0902C142.27 12.6802 142.33 10.8002 142.46 9.4302C142.59 8.0602 142.94 6.8902 143.53 5.9002C144.11 4.8802 144.95 4.0502 146.05 3.4102C147.14 2.7702 148.36 2.4502 149.71 2.4502C151.61 2.4502 153.32 3.1602 154.85 4.5802C155.87 5.5302 156.52 6.6902 156.79 8.0502C157.06 9.4102 157.2 11.3602 157.2 13.8702V24.0402H162.67C164.78 24.0402 166.4 24.5402 167.51 25.5402C168.62 26.5402 169.18 27.8302 169.18 29.4002C169.18 31.4102 168.39 32.8102 166.8 33.6102C165.21 34.4102 162.94 34.8102 159.99 34.8102H157.2V62.2602C157.2 64.5902 157.28 66.3902 157.45 67.6502C157.62 68.9102 158.05 69.9302 158.76 70.7102C159.47 71.4902 160.63 71.8902 162.23 71.8902C163.11 71.8902 164.29 71.7302 165.78 71.4302C167.27 71.1202 168.44 70.9702 169.28 70.9702C170.48 70.9702 171.57 71.4502 172.53 72.4202C173.5 73.3902 173.98 74.5802 173.98 76.0002C173.98 78.4102 172.67 80.2502 170.04 81.5202C167.42 82.8002 163.64 83.4302 158.72 83.4302C154.05 83.4302 150.52 82.6502 148.11 81.0802C145.7 79.5102 144.13 77.3402 143.38 74.5702C142.63 71.8002 142.26 68.1002 142.26 63.4702V34.8102H140.29C138.14 34.8102 136.5 34.3002 135.37 33.2802C134.24 32.2602 133.67 30.9702 133.67 29.4002C133.67 27.8302 134.26 26.5502 135.45 25.5402C136.65 24.5602 138.37 24.0602 140.63 24.0602Z" fill="#FF6000"/>
<path d="M235.351 53.0998C235.351 57.5498 234.661 61.6498 233.271 65.3998C231.881 69.1498 229.881 72.3798 227.251 75.0798C224.621 77.7798 221.491 79.8498 217.841 81.2898C214.191 82.7298 210.091 83.4498 205.541 83.4498C201.021 83.4498 196.951 82.7198 193.341 81.2598C189.731 79.7998 186.601 77.7098 183.961 74.9998C181.321 72.2798 179.311 69.0798 177.941 65.3798C176.571 61.6798 175.891 57.5898 175.891 53.0998C175.891 48.5798 176.581 44.4398 177.971 40.6898C179.351 36.9398 181.341 33.7298 183.931 31.0698C186.521 28.4098 189.651 26.3598 193.341 24.9198C197.021 23.4798 201.091 22.7598 205.541 22.7598C210.061 22.7598 214.161 23.4898 217.841 24.9498C221.521 26.4098 224.681 28.4898 227.301 31.1798C229.921 33.8798 231.921 37.0898 233.291 40.7998C234.661 44.5098 235.351 48.6198 235.351 53.0998ZM220.371 53.0998C220.371 47.0098 219.031 42.2698 216.351 38.8798C213.671 35.4898 210.071 33.7898 205.551 33.7898C202.631 33.7898 200.061 34.5498 197.841 36.0598C195.621 37.5698 193.901 39.8098 192.701 42.7598C191.501 45.7098 190.901 49.1598 190.901 53.0998C190.901 56.9998 191.491 60.4098 192.681 63.3298C193.861 66.2498 195.561 68.4798 197.771 70.0298C199.981 71.5798 202.571 72.3498 205.561 72.3498C210.081 72.3498 213.681 70.6498 216.361 67.2398C219.031 63.8298 220.371 59.1198 220.371 53.0998Z" fill="#FF6000"/>
<path d="M303 53.0998C303 57.5498 302.31 61.6498 300.92 65.3998C299.53 69.1498 297.53 72.3798 294.9 75.0798C292.27 77.7798 289.14 79.8498 285.49 81.2898C281.84 82.7298 277.74 83.4498 273.19 83.4498C268.67 83.4498 264.6 82.7198 260.99 81.2598C257.38 79.7998 254.25 77.7098 251.61 74.9998C248.97 72.2798 246.96 69.0798 245.59 65.3798C244.22 61.6798 243.54 57.5898 243.54 53.0998C243.54 48.5798 244.23 44.4398 245.62 40.6898C247 36.9398 248.99 33.7298 251.58 31.0698C254.17 28.4098 257.3 26.3598 260.99 24.9198C264.67 23.4798 268.74 22.7598 273.19 22.7598C277.71 22.7598 281.81 23.4898 285.49 24.9498C289.17 26.4098 292.33 28.4898 294.95 31.1798C297.57 33.8798 299.57 37.0898 300.94 40.7998C302.31 44.5098 303 48.6198 303 53.0998ZM288.02 53.0998C288.02 47.0098 286.68 42.2698 284 38.8798C281.32 35.4898 277.72 33.7898 273.2 33.7898C270.28 33.7898 267.71 34.5498 265.49 36.0598C263.27 37.5698 261.55 39.8098 260.35 42.7598C259.15 45.7098 258.55 49.1598 258.55 53.0998C258.55 56.9998 259.14 60.4098 260.33 63.3298C261.51 66.2498 263.21 68.4798 265.42 70.0298C267.63 71.5798 270.22 72.3498 273.21 72.3498C277.73 72.3498 281.33 70.6498 284.01 67.2398C286.68 63.8298 288.02 59.1198 288.02 53.0998Z" fill="#FF6000"/>
<path d="M328.32 31.01V32.81C330.94 29.35 333.82 26.8 336.93 25.18C340.05 23.56 343.63 22.75 347.68 22.75C351.62 22.75 355.14 23.61 358.23 25.32C361.33 27.03 363.64 29.46 365.18 32.59C366.16 34.41 366.8 36.38 367.09 38.5C367.38 40.61 367.53 43.31 367.53 46.59V74.37C367.53 77.36 366.85 79.62 365.48 81.15C364.11 82.68 362.34 83.45 360.15 83.45C357.93 83.45 356.12 82.67 354.74 81.1C353.35 79.53 352.66 77.29 352.66 74.37V49.49C352.66 44.57 351.98 40.8 350.61 38.2C349.24 35.59 346.52 34.29 342.43 34.29C339.77 34.29 337.34 35.08 335.16 36.67C332.98 38.26 331.37 40.43 330.35 43.21C329.62 45.43 329.26 49.59 329.26 55.68V74.38C329.26 77.41 328.56 79.68 327.15 81.19C325.75 82.7 323.93 83.46 321.71 83.46C319.56 83.46 317.79 82.68 316.41 81.11C315.02 79.54 314.33 77.3 314.33 74.38V31.23C314.33 28.39 314.95 26.26 316.19 24.86C317.43 23.46 319.12 22.75 321.28 22.75C322.59 22.75 323.78 23.06 324.83 23.68C325.89 24.3 326.73 25.23 327.37 26.47C328 27.71 328.32 29.22 328.32 31.01Z" fill="#FF6000"/>
<path d="M212.38 60.7904C216.77 60.7904 220.33 56.5148 220.33 51.2404C220.33 45.9661 216.77 41.6904 212.38 41.6904C207.989 41.6904 204.43 45.9661 204.43 51.2404C204.43 56.5148 207.989 60.7904 212.38 60.7904Z" fill="black"/>
<path d="M266.47 60.7904C270.86 60.7904 274.42 56.5148 274.42 51.2404C274.42 45.9661 270.86 41.6904 266.47 41.6904C262.079 41.6904 258.52 45.9661 258.52 51.2404C258.52 56.5148 262.079 60.7904 266.47 60.7904Z" fill="black"/>
</g>
<defs>
<clipPath id="clip0_116_125">
<rect width="368" height="84" fill="white"/>
</clipPath>
</defs>
</svg>
