<svg width="48" height="56" viewBox="0 0 48 56" fill="none" xmlns="http://www.w3.org/2000/svg">
<g clip-path="url(#clip0_116_197)">
<path fill-rule="evenodd" clip-rule="evenodd" d="M5 5.372C5 5.168 5.168 5 5.372 5H42.628C42.832 5 43 5.168 43 5.372V24.32C43 24.4187 42.9608 24.5133 42.891 24.583C42.8213 24.6528 42.7267 24.692 42.628 24.692H34.168C33.181 23.1182 31.8421 21.7951 30.2567 20.8268C28.6714 19.8585 26.8828 19.2715 25.032 19.112C26.6456 18.8525 28.1022 17.9947 29.1117 16.7095C30.1212 15.4243 30.6095 13.8059 30.4794 12.1768C30.3492 10.5477 29.6101 9.0274 28.4094 7.91874C27.2086 6.81009 25.6343 6.19445 24 6.19445C22.3657 6.19445 20.7914 6.81009 19.5906 7.91874C18.3899 9.0274 17.6508 10.5477 17.5206 12.1768C17.3905 13.8059 17.8788 15.4243 18.8883 16.7095C19.8978 17.9947 21.3544 18.8525 22.968 19.112C21.1172 19.2715 19.3286 19.8585 17.7433 20.8268C16.1579 21.7951 14.819 23.1182 13.832 24.692H5.372C5.27334 24.692 5.17872 24.6528 5.10896 24.583C5.03919 24.5133 5 24.4187 5 24.32V5.372ZM5.372 0C2.404 0 0 2.404 0 5.372V24.32C0 27.288 2.404 29.692 5.372 29.692H42.628C45.596 29.692 48 27.288 48 24.32V5.372C48 2.404 45.596 0 42.628 0H5.372ZM11.168 32C9.31148 32 7.53101 32.7375 6.21825 34.0503C4.9055 35.363 4.168 37.1435 4.168 39C4.168 40.8565 4.9055 42.637 6.21825 43.9497C7.53101 45.2625 9.31148 46 11.168 46C13.0245 46 14.805 45.2625 16.1177 43.9497C17.4305 42.637 18.168 40.8565 18.168 39C18.168 37.1435 17.4305 35.363 16.1177 34.0503C14.805 32.7375 13.0245 32 11.168 32ZM11.168 46C8.83277 45.9996 6.54817 46.6807 4.59427 47.9596C2.64038 49.2385 1.10209 51.0597 0.168 53.2C0.0352005 53.5043 -0.0197624 53.8368 0.00807047 54.1677C0.0359033 54.4985 0.145656 54.8172 0.327428 55.095C0.5092 55.3728 0.757273 55.601 1.04927 55.759C1.34127 55.917 1.668 55.9998 2 56H20.336C20.668 55.9998 20.9947 55.917 21.2867 55.759C21.5787 55.601 21.8268 55.3728 22.0086 55.095C22.1903 54.8172 22.3001 54.4985 22.3279 54.1677C22.3558 53.8368 22.3008 53.5043 22.168 53.2C21.2339 51.0597 19.6956 49.2385 17.7417 47.9596C15.7878 46.6807 13.5032 45.9996 11.168 46ZM25.832 53.2C26.7655 51.0589 28.3035 49.2368 30.2574 47.9572C32.2114 46.6775 34.4963 45.9958 36.832 45.9958C39.1677 45.9958 41.4526 46.6775 43.4066 47.9572C45.3605 49.2368 46.8985 51.0589 47.832 53.2C47.9648 53.5043 48.0198 53.8368 47.9919 54.1677C47.9641 54.4985 47.8543 54.8172 47.6726 55.095C47.4908 55.3728 47.2427 55.601 46.9507 55.759C46.6587 55.917 46.332 55.9998 46 56H27.664C27.332 55.9998 27.0053 55.917 26.7133 55.759C26.4213 55.601 26.1732 55.3728 25.9914 55.095C25.8097 54.8172 25.6999 54.4985 25.6721 54.1677C25.6442 53.8368 25.6992 53.5043 25.832 53.2ZM29.832 39C29.832 37.1435 30.5695 35.363 31.8823 34.0503C33.195 32.7375 34.9755 32 36.832 32C38.6885 32 40.469 32.7375 41.7817 34.0503C43.0945 35.363 43.832 37.1435 43.832 39C43.832 40.8565 43.0945 42.637 41.7817 43.9497C40.469 45.2625 38.6885 46 36.832 46C34.9755 46 33.195 45.2625 31.8823 43.9497C30.5695 42.637 29.832 40.8565 29.832 39Z" fill="#FF6000"/>
</g>
<defs>
<clipPath id="clip0_116_197">
<rect width="48" height="56" fill="white"/>
</clipPath>
</defs>
</svg>
